<svg xmlns="http://www.w3.org/2000/svg" width="1000" height="667" viewBox="0 0 1000 667" version="1.1">
	<path d="M -0 4.924 C -0 9.235, 0.370 10.127, 2.904 11.932 C 6.747 14.668, 7.307 14.548, 6.801 11.096 C 6.402 8.377, 6.530 8.251, 8.819 9.121 C 10.164 9.633, 12.036 9.806, 12.979 9.507 C 14.322 9.080, 14.713 9.597, 14.778 11.885 C 14.850 14.414, 14.529 14.772, 12.406 14.539 C 11.056 14.391, 9.706 14.666, 9.407 15.151 C 9.107 15.636, 8.443 15.774, 7.931 15.457 C 7.419 15.141, 7 15.332, 7 15.882 C 7 17.604, 9.024 18.225, 10.538 16.968 C 11.336 16.306, 12.892 16, 13.995 16.288 C 15.687 16.731, 16.002 16.320, 16.015 13.656 C 16.027 11.149, 16.250 10.808, 17.096 12 C 17.910 13.146, 18.013 12.822, 17.532 10.629 C 16.934 7.907, 16.991 7.848, 18.633 9.490 C 20.275 11.132, 20.431 11.131, 21.650 9.464 C 22.357 8.497, 22.718 7.353, 22.452 6.922 C 22.185 6.491, 22.425 5.856, 22.984 5.510 C 23.936 4.922, 24.459 6.333, 24.062 8.419 C 23.966 8.925, 24.533 8.803, 25.321 8.148 C 26.477 7.189, 26.859 7.352, 27.285 8.983 C 27.663 10.429, 28.318 10.815, 29.572 10.334 C 30.771 9.874, 31.099 10.031, 30.605 10.830 C 30.179 11.520, 30.483 12, 31.347 12 C 32.287 12, 32.637 11.328, 32.323 10.129 C 31.897 8.497, 32.385 8.279, 36.133 8.425 C 39.776 8.568, 40.536 8.968, 41.116 11.047 L 41.801 13.500 41.900 10.872 C 42.057 6.747, 46 4.596, 46 8.635 C 46 9.351, 45.382 9.700, 44.628 9.411 C 43.608 9.019, 43.386 9.569, 43.765 11.551 C 44.249 14.081, 44.396 13.968, 46.628 9.360 C 48.956 4.553, 48.982 4.535, 48.991 7.750 C 48.999 10.660, 49.288 10.986, 51.750 10.864 C 54.083 10.748, 54.161 10.662, 52.267 10.296 C 50.742 10.002, 50.126 9.260, 50.324 7.958 C 50.713 5.409, 52 4.213, 52 6.401 C 52 8.244, 54.119 8.045, 58.750 5.768 C 61.639 4.348, 61.583 3.612, 58.428 1.545 C 55.698 -0.244, 49.067 -0.272, 47.765 1.500 C 47.302 2.130, 47.025 2.062, 47.015 1.317 C 47.004 0.443, 40.871 0.114, 23.500 0.059 L 0 -0.017 -0 4.924 M 60.574 1.717 C 61.280 2.422, 62.339 3, 62.929 3 C 63.518 3, 64.036 3.788, 64.079 4.750 C 64.129 5.853, 64.529 5.483, 65.162 3.750 C 66.204 0.899, 69 -0.073, 69 2.417 C 69 3.196, 68.662 4.022, 68.250 4.253 C 67.838 4.483, 68.175 4.467, 69 4.217 C 69.825 3.967, 71.020 3.740, 71.655 3.714 C 72.290 3.688, 72.593 3.102, 72.328 2.413 C 72.047 1.681, 72.816 0.994, 74.174 0.763 C 75.453 0.545, 72.628 0.382, 67.895 0.400 C 60.891 0.427, 59.529 0.672, 60.574 1.717 M 76.250 1.498 C 74.190 3.835, 74.777 5.512, 76.963 3.534 C 78.185 2.428, 79.600 2.019, 80.713 2.450 C 82.400 3.104, 82.392 3.223, 80.559 4.571 C 78.775 5.884, 78.762 6, 80.402 6 C 81.384 6, 82.426 5.087, 82.718 3.972 C 83.077 2.596, 83.806 2.121, 84.983 2.495 C 85.937 2.797, 87.193 2.472, 87.773 1.773 C 89.369 -0.151, 77.944 -0.423, 76.250 1.498 M 93.547 0.787 C 92.399 1.935, 93.023 3.226, 94.250 2.241 C 94.938 1.689, 96.730 1.377, 98.234 1.549 C 99.738 1.720, 101.157 1.554, 101.388 1.180 C 101.887 0.372, 94.340 -0.007, 93.547 0.787 M 103.401 1.160 C 103.164 1.544, 104.240 1.697, 105.792 1.501 C 107.344 1.305, 109.264 1.561, 110.057 2.072 C 111.308 2.876, 111.300 3.144, 110 4.076 C 108.667 5.033, 108.667 5.107, 110 4.748 C 110.825 4.525, 111.630 3.470, 111.789 2.402 C 112.036 0.748, 111.469 0.462, 107.956 0.462 C 105.688 0.462, 103.639 0.776, 103.401 1.160 M 123 1 C 123 1.550, 123.450 2, 124 2 C 124.550 2, 125 1.550, 125 1 C 125 0.450, 124.550 0, 124 0 C 123.450 0, 123 0.450, 123 1 M 153.813 0.683 C 154.534 0.972, 155.397 0.936, 155.729 0.604 C 156.061 0.272, 155.471 0.036, 154.417 0.079 C 153.252 0.127, 153.015 0.364, 153.813 0.683 M 503.392 1.594 C 504.001 2.257, 504.950 2.455, 505.500 2.034 C 506.050 1.613, 507.175 1.040, 508 0.762 C 508.825 0.483, 507.876 0.285, 505.892 0.321 C 503.132 0.373, 502.544 0.672, 503.392 1.594 M 510 1.019 C 510 1.624, 511.117 1.770, 512.750 1.378 C 516.676 0.437, 516.808 -0, 513.167 -0 C 511.425 -0, 510 0.459, 510 1.019 M 525 0.809 C 525 2.141, 527.934 5.600, 527.968 4.309 C 527.986 3.654, 527.543 2.835, 526.984 2.490 C 526.425 2.144, 526.226 1.443, 526.543 0.931 C 526.859 0.419, 526.641 -0, 526.059 -0 C 525.477 -0, 525 0.364, 525 0.809 M 540 0.775 C 540 1.184, 540.810 2.025, 541.799 2.643 C 543.172 3.500, 544.048 3.438, 545.491 2.383 C 548.320 0.314, 549.750 0.703, 549.750 3.542 C 549.750 6.969, 550.884 7.879, 552.463 5.719 C 553.621 4.136, 553.830 4.115, 554.375 5.534 C 554.723 6.443, 555.491 6.814, 556.163 6.399 C 556.953 5.911, 557.134 6.208, 556.714 7.304 C 556.369 8.202, 556.479 9.178, 556.958 9.474 C 557.437 9.770, 558.057 9.447, 558.336 8.756 C 558.643 7.995, 558.873 8.185, 558.921 9.240 C 558.996 10.885, 559.110 10.886, 561 9.268 C 562.100 8.326, 563 6.943, 563 6.194 C 563 5.446, 563.563 5.040, 564.250 5.292 C 564.938 5.544, 565.350 6.369, 565.167 7.125 C 564.983 7.881, 565.167 8.166, 565.575 7.759 C 565.982 7.351, 566.931 7.528, 567.682 8.151 C 568.434 8.775, 569.337 8.996, 569.691 8.643 C 570.044 8.289, 569.808 8, 569.167 8 C 568.525 8, 568 7.520, 568 6.933 C 568 6.303, 568.862 6.139, 570.103 6.533 C 571.259 6.900, 573.680 7.200, 575.483 7.200 C 578.211 7.200, 578.677 7.519, 578.264 9.100 C 577.670 11.370, 579.256 11.601, 581 9.500 C 582.585 7.590, 584 7.575, 584 9.469 C 584 10.428, 584.577 10.716, 585.664 10.299 C 586.783 9.869, 587.091 10.043, 586.605 10.830 C 586.171 11.532, 586.505 12, 587.441 12 C 588.298 12, 589 12.702, 589 13.559 C 589 15.449, 590.608 14.600, 592.018 11.967 C 592.885 10.346, 592.769 10.149, 591.273 10.710 C 589.829 11.251, 589.716 11.108, 590.665 9.937 C 591.306 9.147, 591.831 8.125, 591.832 7.667 C 591.833 7.208, 592.168 6.533, 592.577 6.167 C 592.986 5.800, 592.997 6.063, 592.601 6.750 C 592.206 7.438, 592.359 8, 592.941 8 C 593.523 8, 594 8.675, 594 9.500 C 594 10.325, 594.473 11, 595.052 11 C 595.631 11, 596.575 12.350, 597.150 14 C 598.154 16.882, 600 18.139, 600 15.941 C 600 15.359, 600.508 15.196, 601.130 15.580 C 601.815 16.004, 602.077 15.732, 601.796 14.889 C 601.542 14.125, 600.733 13.500, 600 13.500 C 599.267 13.500, 598.455 12.866, 598.197 12.091 C 597.865 11.094, 598.238 10.877, 599.475 11.352 C 600.754 11.843, 601.071 11.626, 600.655 10.543 C 600.343 9.730, 600.518 8.798, 601.044 8.473 C 601.570 8.148, 602 8.809, 602 9.941 C 602 11.073, 602.450 12, 603 12 C 603.550 12, 604 11.127, 604 10.059 C 604 7.578, 605.831 6.425, 607.337 7.959 C 608.224 8.862, 608.144 9.067, 607 8.821 C 606.041 8.616, 605.606 9.131, 605.794 10.250 C 605.955 11.213, 605.618 12, 605.044 12 C 604.470 12, 604 12.900, 604 14 C 604 16.534, 604.807 16.529, 607.018 13.979 C 608.566 12.195, 608.843 12.149, 609.394 13.583 C 609.812 14.673, 610.590 14.968, 611.758 14.480 C 612.716 14.080, 614.711 13.657, 616.192 13.540 C 618.647 13.347, 618.834 13.578, 618.317 16.164 C 617.971 17.896, 618.176 19, 618.844 19 C 619.445 19, 619.678 18.325, 619.362 17.500 C 618.782 15.990, 619.820 15.592, 623.359 15.966 C 624.469 16.084, 624.949 15.727, 624.550 15.081 C 624.183 14.487, 624.359 14, 624.941 14 C 625.523 14, 626 14.380, 626 14.845 C 626 16.183, 622.410 19.076, 621.669 18.336 C 621.301 17.968, 621 18.472, 621 19.456 C 621 20.933, 621.262 21.028, 622.500 20 C 623.325 19.315, 624 19.090, 624 19.500 C 624 19.910, 624.662 19.695, 625.472 19.023 C 626.647 18.048, 627.253 18.110, 628.472 19.329 C 629.312 20.170, 630 21.339, 630 21.929 C 630 22.518, 630.436 23, 630.969 23 C 631.501 23, 631.639 23.788, 631.275 24.750 C 630.643 26.417, 630.696 26.417, 632.377 24.750 C 634.335 22.809, 636 22.465, 636 24 C 636 24.550, 636.477 25, 637.059 25 C 637.641 25, 637.840 24.550, 637.500 24 C 637.160 23.450, 637.332 23, 637.882 23 C 639.525 23, 640.308 25.092, 639.113 26.287 C 637.405 27.995, 637.792 29.417, 639.564 27.947 C 640.598 27.089, 640.927 25.775, 640.534 24.074 C 640.076 22.092, 640.181 21.845, 640.989 23 C 641.908 24.314, 642.204 24.283, 643.379 22.750 C 645.139 20.454, 646 20.536, 646 23 C 646 24.100, 645.550 25, 645 25 C 643.457 25, 643.818 28.604, 645.500 30 C 647.072 31.305, 647.328 30.874, 647.056 27.382 C 646.923 25.671, 647.382 25.317, 649.441 25.543 C 650.844 25.697, 652.243 25.416, 652.550 24.919 C 652.858 24.421, 654.202 25.194, 655.537 26.635 C 657.602 28.863, 658.058 29.011, 658.590 27.627 C 659.598 24.999, 661 25.758, 661 28.933 C 661 32.881, 664.077 33.871, 667.640 31.069 C 670.985 28.438, 671.378 28.469, 673 31.500 C 674.433 34.178, 676.597 34.999, 675.638 32.500 C 675.322 31.675, 675.513 31, 676.063 31 C 676.613 31, 677.314 31.787, 677.622 32.750 C 677.930 33.712, 678.558 35.400, 679.018 36.500 C 679.477 37.600, 680.076 39.175, 680.348 40 C 680.731 41.163, 680.860 41.107, 680.921 39.750 C 680.964 38.788, 681.395 38, 681.878 38 C 683.435 38, 685.241 40.930, 684.643 42.487 C 684.301 43.378, 684.619 44, 685.415 44 C 686.158 44, 687.002 43.100, 687.290 42 C 687.577 40.900, 687.330 40, 686.740 40 C 686.150 40, 685.928 39.739, 686.248 39.419 C 686.567 39.099, 687.767 39.340, 688.914 39.954 C 691.395 41.282, 691.596 40.739, 689.429 38.571 C 688 37.143, 688 37, 689.429 37 C 690.293 37, 691 36.298, 691 35.441 C 691 34.584, 691.408 34.134, 691.906 34.442 C 692.404 34.750, 692.587 35.865, 692.311 36.919 C 692.035 37.974, 692.324 39.661, 692.952 40.668 C 693.978 42.311, 694.032 42.268, 693.480 40.250 C 692.790 37.727, 694.451 37.128, 695.386 39.563 C 695.716 40.423, 696.438 40.848, 696.990 40.506 C 697.651 40.098, 697.644 40.806, 696.969 42.582 C 696.405 44.064, 696.137 45.470, 696.372 45.706 C 696.608 45.941, 697.330 44.529, 697.978 42.567 C 699.138 39.053, 702.072 37.689, 703.500 40 C 703.840 40.550, 705.843 41, 707.952 41 C 710.507 41, 711.986 41.522, 712.386 42.563 C 712.716 43.423, 713.439 43.847, 713.993 43.504 C 714.547 43.162, 715 43.449, 715 44.141 C 715 45.065, 715.296 45.104, 716.113 44.287 C 717.375 43.025, 716.357 40.661, 714.931 41.543 C 714.419 41.859, 714 41.694, 714 41.176 C 714 39.664, 717.763 39.106, 719.482 40.363 C 720.477 41.091, 720.955 42.697, 720.779 44.725 C 720.625 46.491, 720.950 47.838, 721.500 47.718 C 722.050 47.598, 722.393 47.179, 722.262 46.786 C 722.131 46.393, 722.694 46.329, 723.512 46.643 C 724.330 46.957, 725 46.716, 725 46.107 C 725 45.498, 724.325 45, 723.500 45 C 722.675 45, 722 44.550, 722 44 C 722 42.682, 723.327 42.727, 724.693 44.093 C 725.483 44.883, 726.438 44.867, 728.143 44.036 L 730.500 42.887 728.250 44.854 C 725.622 47.151, 725.420 48, 727.500 48 C 728.325 48, 729 48.450, 729 49 C 729 49.550, 729.480 50, 730.067 50 C 730.713 50, 730.861 49.110, 730.443 47.750 C 730.063 46.512, 730.104 45.834, 730.534 46.241 C 730.964 46.649, 731.978 46.433, 732.788 45.761 C 734.054 44.711, 734.157 45.009, 733.525 47.888 C 733.058 50.013, 733.248 52.094, 734.043 53.581 L 735.297 55.924 738.206 53.853 C 739.806 52.714, 741.358 52.025, 741.655 52.322 C 741.952 52.619, 741.251 53.451, 740.097 54.171 C 738.944 54.892, 738 55.913, 738 56.441 C 738 56.968, 738.540 56.860, 739.200 56.200 C 739.860 55.540, 741.237 55, 742.259 55 C 743.417 55, 743.879 54.529, 743.485 53.750 C 743.137 53.063, 743.529 53.331, 744.357 54.347 C 745.185 55.363, 745.742 56.713, 745.595 57.347 C 745.448 57.981, 745.517 58.163, 745.747 57.750 C 745.978 57.337, 746.804 57, 747.583 57 C 749.333 57, 749.465 59.646, 747.750 60.338 C 747.003 60.639, 747.205 60.874, 748.250 60.921 C 749.212 60.964, 750 60.502, 750 59.893 C 750 59.264, 750.731 59.066, 751.694 59.436 C 753.253 60.034, 753.261 59.944, 751.787 58.293 C 750.440 56.784, 750.403 56.302, 751.551 55.250 C 753.501 53.464, 755.156 53.707, 754.948 55.750 C 754.642 58.758, 755.115 61.608, 755.684 60.185 C 755.973 59.462, 757.288 58.461, 758.605 57.960 C 759.922 57.459, 760.986 56.251, 760.970 55.275 C 760.941 53.591, 760.887 53.590, 759.920 55.250 C 759.359 56.213, 758.569 57, 758.163 57 C 756.909 57, 757.021 52.606, 758.296 51.796 C 760.404 50.456, 762 50.939, 762 52.918 C 762 53.973, 762.281 55.568, 762.624 56.461 C 763.195 57.949, 763.405 57.943, 765.124 56.388 C 766.889 54.790, 767 54.791, 767 56.404 C 767 57.347, 767.457 57.835, 768.016 57.490 C 768.575 57.144, 768.746 56.398, 768.396 55.831 C 768.012 55.210, 768.610 55.256, 769.900 55.946 C 771.078 56.577, 772.477 56.823, 773.009 56.494 C 773.556 56.156, 773.714 56.582, 773.372 57.474 C 772.888 58.735, 772.474 58.808, 771.307 57.840 C 770.150 56.880, 769.659 56.926, 768.939 58.064 C 767.795 59.872, 767.728 63, 768.833 63 C 770.517 63, 770.950 61.643, 769.741 60.155 C 768.691 58.860, 768.791 58.735, 770.395 59.337 C 771.597 59.788, 772.967 59.435, 774.145 58.369 C 775.165 57.446, 776.007 57.097, 776.015 57.595 C 776.024 58.093, 776.498 57.825, 777.070 57 C 777.840 55.888, 778.030 56.704, 777.804 60.155 C 777.637 62.715, 777.837 64.600, 778.250 64.346 C 778.663 64.091, 779 64.584, 779 65.441 C 779 67.777, 781.947 67.319, 782.864 64.840 C 783.617 62.803, 783.704 62.787, 784.386 64.563 C 784.833 65.729, 784.588 66.838, 783.742 67.474 C 781.207 69.378, 780.979 71.761, 783.276 72.362 C 784.451 72.669, 785.620 72.714, 785.873 72.460 C 786.126 72.207, 785.808 72, 785.167 72 C 784.525 72, 784.007 71.213, 784.015 70.250 C 784.027 68.949, 784.242 68.833, 784.853 69.797 C 785.510 70.832, 786.363 70.731, 789.088 69.297 C 790.965 68.308, 792.658 67.417, 792.850 67.317 C 793.043 67.216, 792.901 66.648, 792.534 66.056 C 792.081 65.322, 791.181 65.460, 789.712 66.489 C 786.360 68.837, 785.419 68.268, 788.275 65.621 C 790.171 63.864, 790.549 62.949, 789.721 62.121 C 788.893 61.293, 788.922 61, 789.831 61 C 790.509 61, 791.353 61.788, 791.708 62.750 C 792.064 63.712, 792.674 64.725, 793.064 65 C 793.455 65.275, 794.634 67.045, 795.685 68.933 C 796.737 70.821, 798.250 72.574, 799.048 72.829 C 800.058 73.151, 799.920 72.639, 798.595 71.146 C 797.547 69.966, 796.985 68.944, 797.345 68.875 C 797.705 68.806, 798.337 68.687, 798.750 68.610 C 799.163 68.533, 800.092 68.094, 800.817 67.635 C 802.732 66.420, 803.337 67.520, 801.670 69.188 C 800.521 70.336, 800.484 70.942, 801.482 72.307 C 803.167 74.611, 804.275 74.442, 803.500 72 C 803.043 70.560, 803.320 70, 804.492 70 C 805.386 70, 805.881 70.384, 805.591 70.853 C 805.301 71.322, 805.691 72.559, 806.458 73.603 C 807.821 75.458, 807.848 75.456, 807.676 73.545 C 807.546 72.103, 808.192 71.531, 810.138 71.363 C 812.248 71.182, 812.682 71.501, 812.301 72.956 C 811.774 74.973, 813.418 76.478, 815.049 75.470 C 815.770 75.024, 815.746 74.398, 814.970 73.463 C 814.171 72.501, 814.148 71.579, 814.891 70.302 C 815.870 68.619, 815.941 68.615, 815.970 70.250 C 815.989 71.342, 816.777 72, 818.065 72 C 819.200 72, 821.298 73.389, 822.726 75.086 C 824.154 76.783, 826.375 78.572, 827.661 79.061 C 829.286 79.679, 830.035 80.798, 830.116 82.725 C 830.180 84.251, 830.423 84.788, 830.657 83.917 C 831.260 81.674, 839.740 81.674, 840.343 83.917 C 840.695 85.227, 840.789 85.242, 840.892 84 C 841.021 82.433, 845.278 80.011, 847.949 79.985 C 849.293 79.971, 849.304 79.845, 848.029 79.039 C 847.220 78.527, 846.783 77.884, 847.058 77.609 C 847.333 77.334, 848.213 77.513, 849.013 78.008 C 850.181 78.730, 849.710 79.581, 846.624 82.327 C 844.052 84.615, 843.171 85.988, 843.960 86.475 C 844.609 86.877, 845.530 88.171, 846.007 89.352 C 846.670 90.997, 846.888 91.101, 846.937 89.795 C 846.989 88.388, 847.437 88.528, 849.508 90.599 C 850.918 92.008, 852.526 92.793, 853.179 92.389 C 853.943 91.917, 853.597 91.395, 852.171 90.868 C 849.575 89.907, 849.271 87.963, 851.750 88.170 C 855.478 88.483, 857 87.934, 857 86.277 C 857 84.882, 857.305 84.990, 858.602 86.842 C 859.483 88.100, 859.871 89.438, 859.465 89.815 C 859.059 90.192, 858.534 89.963, 858.298 89.306 C 857.608 87.378, 854.997 89.017, 855.032 91.357 C 855.069 93.847, 857.665 97.668, 858.650 96.683 C 859.019 96.314, 858.502 95.107, 857.500 94 C 856.498 92.893, 856.007 91.660, 856.408 91.259 C 856.809 90.858, 857.982 91.648, 859.014 93.015 C 860.495 94.975, 861.151 95.242, 862.119 94.277 C 863.061 93.338, 863.078 92.467, 862.194 90.527 C 861.397 88.778, 861.373 88, 862.115 88 C 862.705 88, 863.426 88.913, 863.718 90.028 C 864.122 91.575, 864.752 91.894, 866.374 91.372 C 867.543 90.995, 869.550 90.568, 870.834 90.423 C 872.916 90.186, 873.016 90.338, 871.760 91.829 C 870.986 92.748, 870.548 94.373, 870.786 95.441 C 871.146 97.049, 871.450 96.836, 872.557 94.202 C 873.452 92.073, 874.382 91.209, 875.370 91.588 C 876.602 92.061, 876.528 92.472, 874.923 94.077 C 872.861 96.139, 872.421 98.524, 873.929 99.456 C 874.439 99.771, 875.002 99.010, 875.179 97.765 C 875.386 96.304, 876.299 95.387, 877.750 95.180 C 880.098 94.847, 880.737 93.532, 878.975 92.658 C 878.411 92.379, 878.524 92.267, 879.225 92.411 C 879.926 92.555, 880.561 93.308, 880.635 94.086 C 880.709 94.864, 880.821 96.063, 880.885 96.750 C 880.948 97.438, 881.730 98, 882.622 98 C 883.962 98, 884.025 97.735, 882.981 96.477 C 881.931 95.212, 881.981 95.055, 883.271 95.551 C 884.127 95.879, 885.025 95.552, 885.269 94.823 C 885.513 94.096, 885.602 94.258, 885.467 95.185 C 885.161 97.280, 888.046 98.531, 889.155 96.784 C 889.714 95.902, 889.974 96.204, 889.985 97.750 C 889.993 98.987, 889.400 100, 888.667 100 C 887.843 100, 887.333 101.182, 887.333 103.090 C 887.333 106.072, 887.375 106.101, 888.533 103.939 C 889.423 102.276, 889.876 102.059, 890.287 103.099 C 890.592 103.869, 890.878 103.263, 890.921 101.750 C 891.019 98.353, 893 98.059, 893 101.441 C 893 104.597, 894.598 105.545, 896.579 103.564 C 898.555 101.588, 900 101.561, 900 103.500 C 900 104.325, 900.450 105, 901 105 C 901.550 105, 902 104.523, 902 103.941 C 902 103.359, 902.498 103.190, 903.107 103.566 C 903.783 103.984, 903.841 104.493, 903.256 104.875 C 902.730 105.219, 901.717 106.625, 901.004 108 C 899.756 110.410, 899.777 110.439, 901.605 108.821 C 903.007 107.579, 903.967 107.402, 905.288 108.141 C 906.271 108.692, 907.621 108.920, 908.288 108.650 C 909.009 108.357, 908.834 108.126, 907.857 108.079 C 905.378 107.960, 904.778 105.189, 906.977 104.013 C 908.245 103.334, 909.085 103.329, 909.498 103.997 C 909.839 104.549, 909.304 105.029, 908.309 105.063 C 906.774 105.117, 906.820 105.256, 908.612 105.980 C 909.773 106.449, 911.638 107.996, 912.756 109.417 C 915.377 112.748, 916.619 112.693, 916.490 109.250 C 916.434 107.737, 916.772 105.978, 917.242 105.339 C 918.652 103.425, 916.135 102.723, 914.330 104.527 C 912.952 105.905, 912.907 106.325, 914.059 107.036 C 914.820 107.507, 915.190 108.143, 914.882 108.452 C 914.573 108.760, 913.504 108.110, 912.506 107.006 C 911.478 105.871, 911.191 105, 911.845 105 C 912.480 105, 913 104.296, 913 103.437 C 913 102.275, 913.836 101.954, 916.250 102.187 C 919.021 102.454, 919.451 102.847, 919.170 104.851 C 918.970 106.274, 919.661 107.967, 920.920 109.140 C 922.985 111.064, 923 111.062, 923.032 108.789 C 923.060 106.780, 923.212 106.695, 924.282 108.099 C 924.952 108.979, 925.950 109.766, 926.500 109.849 C 927.050 109.932, 927.556 110.450, 927.625 111 C 927.694 111.550, 927.806 112.450, 927.875 113 C 927.944 113.550, 928.886 114, 929.969 114 C 931.292 114, 931.752 114.483, 931.371 115.474 C 931.060 116.285, 931.524 117.667, 932.403 118.546 C 933.281 119.424, 934 120.812, 934 121.630 C 934 122.449, 934.481 122.821, 935.068 122.458 C 935.656 122.095, 935.895 121.169, 935.600 120.400 C 934.827 118.385, 936.462 114.321, 937.421 115.873 C 937.834 116.541, 937.628 117.743, 936.964 118.544 C 935.990 119.717, 936.070 120, 937.378 120 C 938.270 120, 939 119.325, 939 118.500 C 939 116.683, 940.631 116.510, 941.349 118.250 C 941.695 119.089, 942.692 118.596, 944.384 116.750 C 947.380 113.481, 948.504 113.191, 946.954 116.086 C 946.340 117.233, 946.096 118.429, 946.410 118.744 C 946.725 119.058, 946.476 119.927, 945.856 120.673 C 944.987 121.720, 945.253 122.485, 947.018 124.015 C 949.791 126.420, 949.261 126.421, 953.226 124.004 C 958.052 121.061, 959.011 121.619, 955 125.036 C 952.819 126.894, 952.254 127.759, 953.500 127.332 C 954.600 126.955, 955.803 126.192, 956.174 125.637 C 956.609 124.986, 957.406 125.092, 958.424 125.937 C 959.749 127.036, 960 126.986, 960 125.622 C 960 124.730, 960.352 124, 960.783 124 C 961.687 124, 961.662 128.120, 960.748 129.598 C 960.409 130.147, 960.545 131.249, 961.051 132.048 C 961.805 133.241, 961.972 133.176, 961.985 131.684 C 961.993 130.686, 962.498 128.937, 963.107 127.799 C 963.998 126.135, 964.390 126.001, 965.107 127.115 C 965.859 128.281, 966.156 128.263, 966.985 127 C 967.526 126.175, 967.976 125.987, 967.985 126.583 C 967.993 127.179, 968.675 127.667, 969.500 127.667 C 971.319 127.667, 971.481 126.362, 969.750 125.659 C 968.809 125.278, 968.871 124.890, 970 124.091 C 972.323 122.449, 972.688 122.764, 972.213 126 C 971.874 128.313, 972.156 129, 973.446 129 C 974.365 129, 974.826 129.472, 974.470 130.049 C 974.021 130.775, 973.420 130.764, 972.513 130.011 C 970.798 128.588, 967 127.875, 967 128.976 C 967 130.874, 968.283 133, 969.428 133 C 971.513 133, 978.096 136.571, 977.363 137.304 C 976.980 137.687, 977.304 137.986, 978.083 137.968 C 980.516 137.914, 982.997 135.383, 983.063 132.890 L 983.127 130.500 984.051 132.805 C 984.767 134.588, 984.526 135.592, 982.987 137.245 C 981.578 138.757, 981.337 139.590, 982.163 140.101 C 983.324 140.818, 984.313 140.713, 988.919 139.379 C 990.905 138.804, 991.224 138.975, 990.700 140.339 C 990.326 141.313, 990.567 142.037, 991.281 142.090 C 991.952 142.140, 991.021 142.607, 989.214 143.128 C 987.407 143.649, 986.196 144.509, 986.523 145.038 C 987.427 146.499, 990.599 146.188, 992 144.500 C 992.685 143.675, 993.752 143.007, 994.372 143.015 C 995.031 143.024, 994.931 143.391, 994.133 143.897 C 993.026 144.598, 993.205 145.358, 995.071 147.882 C 999.021 153.225, 999.561 152.056, 999.741 137.750 C 999.889 126.071, 1000.109 26.439, 1000.030 7.243 L 1000 -0.013 784.403 0.007 C 570.553 0.027, 568.802 0.043, 568.289 2.002 C 568.005 3.089, 567.352 3.718, 566.838 3.400 C 566.282 3.056, 566.362 2.269, 567.034 1.459 C 567.979 0.320, 565.853 0.091, 554.082 0.064 C 546.337 0.047, 540 0.367, 540 0.775 M 31.331 3.750 C 31.687 5.617, 31.535 7, 30.975 7 C 30.439 7, 30 6.142, 30 5.094 C 30 3.601, 29.512 3.321, 27.750 3.803 C 26.060 4.266, 25.910 4.505, 27.147 4.763 C 28.053 4.952, 29.051 6.088, 29.365 7.286 C 29.816 9.013, 30.190 9.210, 31.167 8.233 C 31.845 7.555, 33.547 6.955, 34.950 6.900 L 37.500 6.801 35.092 6.127 C 33.767 5.756, 32.564 4.635, 32.417 3.635 C 32.270 2.635, 31.827 1.520, 31.431 1.158 C 31.036 0.796, 30.991 1.962, 31.331 3.750 M 55.658 2.551 C 56.017 3.487, 55.574 4, 54.407 4 C 53.164 4, 52.922 4.322, 53.633 5.033 C 54.918 6.318, 58 5.237, 58 3.500 C 58 2.793, 57.348 1.964, 56.551 1.658 C 55.582 1.286, 55.286 1.582, 55.658 2.551 M 114 1.500 C 114 1.775, 114.900 2.900, 116 4 C 117.925 5.925, 118 5.929, 118 4.107 C 118 3.066, 117.288 1.941, 116.418 1.607 C 114.496 0.869, 114 0.847, 114 1.500 M 35.500 3 C 35.840 3.550, 36.766 4, 37.559 4 C 38.352 4, 39 3.550, 39 3 C 39 2.450, 38.073 2, 36.941 2 C 35.809 2, 35.160 2.450, 35.500 3 M 484.500 3 C 484.840 3.550, 485.541 4, 486.059 4 C 486.577 4, 487 3.550, 487 3 C 487 2.450, 486.298 2, 485.441 2 C 484.584 2, 484.160 2.450, 484.500 3 M 551.079 3.583 C 551.127 4.748, 551.364 4.985, 551.683 4.188 C 551.972 3.466, 551.936 2.603, 551.604 2.271 C 551.272 1.939, 551.036 2.529, 551.079 3.583 M 559.755 4.500 C 560.018 5.875, 560.406 7, 560.617 7 C 560.827 7, 561 5.875, 561 4.500 C 561 3.125, 560.612 2, 560.139 2 C 559.665 2, 559.492 3.125, 559.755 4.500 M 19 4 C 19 4.550, 19.450 5, 20 5 C 20.550 5, 21 4.550, 21 4 C 21 3.450, 20.550 3, 20 3 C 19.450 3, 19 3.450, 19 4 M 544.904 4.615 C 543.744 6.013, 543.818 6.181, 545.449 5.865 C 546.486 5.664, 547.522 4.938, 547.750 4.250 C 548.344 2.466, 546.490 2.704, 544.904 4.615 M 41 5 C 41 5.550, 41.450 6, 42 6 C 42.550 6, 43 5.550, 43 5 C 43 4.450, 42.550 4, 42 4 C 41.450 4, 41 4.450, 41 5 M 85 5.059 C 85 5.641, 85.450 5.840, 86 5.500 C 86.550 5.160, 87 4.684, 87 4.441 C 87 4.198, 86.550 4, 86 4 C 85.450 4, 85 4.477, 85 5.059 M 534 4.893 C 534 6.143, 536.823 7.096, 537.462 6.061 C 537.752 5.593, 537.279 4.937, 536.412 4.605 C 534.316 3.800, 534 3.838, 534 4.893 M 539 5.059 C 539 5.641, 539.450 5.840, 540 5.500 C 540.550 5.160, 541 4.684, 541 4.441 C 541 4.198, 540.550 4, 540 4 C 539.450 4, 539 4.477, 539 5.059 M 569.813 4.683 C 570.534 4.972, 571.397 4.936, 571.729 4.604 C 572.061 4.272, 571.471 4.036, 570.417 4.079 C 569.252 4.127, 569.015 4.364, 569.813 4.683 M 89.500 6 C 87.870 6.701, 87.812 6.872, 89.191 6.930 C 90.121 6.968, 91.160 6.550, 91.500 6 C 92.211 4.850, 92.176 4.850, 89.500 6 M 102.603 5.833 C 102.320 6.292, 102.723 6.667, 103.500 6.667 C 104.277 6.667, 104.680 6.292, 104.397 5.833 C 104.114 5.375, 103.710 5, 103.500 5 C 103.290 5, 102.886 5.375, 102.603 5.833 M 3.229 10.187 C 3.727 11.682, 6 12.505, 6 11.190 C 6 10.653, 5.287 9.941, 4.416 9.606 C 3.443 9.233, 2.985 9.456, 3.229 10.187 M 57.500 11 C 57.160 11.550, 57.359 12, 57.941 12 C 58.523 12, 59 11.550, 59 11 C 59 10.450, 58.802 10, 58.559 10 C 58.316 10, 57.840 10.450, 57.500 11 M 611.500 11 C 611.840 11.550, 612.316 12, 612.559 12 C 612.802 12, 613 11.550, 613 11 C 613 10.450, 612.523 10, 611.941 10 C 611.359 10, 611.160 10.450, 611.500 11 M 8 12 C 8 12.550, 8.927 13, 10.059 13 C 11.191 13, 11.840 12.550, 11.500 12 C 11.160 11.450, 10.234 11, 9.441 11 C 8.648 11, 8 11.450, 8 12 M 1 14 C 1 14.550, 1.450 15, 2 15 C 2.550 15, 3 14.550, 3 14 C 3 13.450, 2.550 13, 2 13 C 1.450 13, 1 13.450, 1 14 M 630 15.681 C 627.653 17.075, 627.637 17.136, 629.746 16.677 C 631.582 16.278, 632.159 16.765, 632.906 19.345 C 633.491 21.367, 633.847 21.782, 633.894 20.500 C 633.936 19.400, 633.550 17.837, 633.037 17.026 C 632.423 16.055, 632.513 15.294, 633.303 14.792 C 635.533 13.374, 632.518 14.186, 630 15.681 M 1.015 18.250 C 1.027 19.920, 1.256 20.145, 1.904 19.122 C 2.384 18.364, 3.284 18.058, 3.905 18.441 C 4.525 18.824, 4.774 19.557, 4.457 20.069 C 4.141 20.581, 4.332 21, 4.882 21 C 6.987 21, 6.938 19.070, 4.794 17.568 C 1.772 15.451, 0.997 15.591, 1.015 18.250 M 19 19.441 C 19 20.298, 19.450 21, 20 21 C 20.550 21, 21 20.577, 21 20.059 C 21 19.541, 20.550 18.840, 20 18.500 C 19.450 18.160, 19 18.584, 19 19.441 M 608.079 19.583 C 608.127 20.748, 608.364 20.985, 608.683 20.188 C 608.972 19.466, 608.936 18.603, 608.604 18.271 C 608.272 17.939, 608.036 18.529, 608.079 19.583 M 11 20 C 11 20.550, 11.675 21, 12.500 21 C 13.325 21, 14 20.550, 14 20 C 14 19.450, 13.325 19, 12.500 19 C 11.675 19, 11 19.450, 11 20 M 15.813 23.683 C 16.534 23.972, 17.397 23.936, 17.729 23.604 C 18.061 23.272, 17.471 23.036, 16.417 23.079 C 15.252 23.127, 15.015 23.364, 15.813 23.683 M 627 25.059 C 627 25.641, 627.450 25.840, 628 25.500 C 628.550 25.160, 629 24.684, 629 24.441 C 629 24.198, 628.550 24, 628 24 C 627.450 24, 627 24.477, 627 25.059 M 666 27 C 666 27.550, 666.477 28, 667.059 28 C 667.641 28, 667.840 27.550, 667.500 27 C 667.160 26.450, 666.684 26, 666.441 26 C 666.198 26, 666 26.450, 666 27 M 674.500 29 C 674.160 29.550, 674.359 30, 674.941 30 C 675.523 30, 676 29.550, 676 29 C 676 28.450, 675.802 28, 675.559 28 C 675.316 28, 674.840 28.450, 674.500 29 M 657 31 C 657 31.550, 657.450 32, 658 32 C 658.550 32, 659 31.550, 659 31 C 659 30.450, 658.550 30, 658 30 C 657.450 30, 657 30.450, 657 31 M 664 31 C 664 31.550, 664.450 32, 665 32 C 665.550 32, 666 31.550, 666 31 C 666 30.450, 665.550 30, 665 30 C 664.450 30, 664 30.450, 664 31 M 668.217 33.016 C 667.155 34.724, 667.185 35.328, 668.396 36.539 C 669.200 37.342, 670.204 38, 670.629 38 C 671.053 38, 670.860 37.460, 670.200 36.800 C 668.469 35.069, 668.725 33.866, 670.750 34.206 C 671.764 34.376, 672.500 33.874, 672.500 33.014 C 672.500 30.713, 669.649 30.715, 668.217 33.016 M 679 32.559 C 679 33.416, 679.457 33.835, 680.016 33.490 C 680.575 33.144, 680.774 32.443, 680.457 31.931 C 679.600 30.544, 679 30.802, 679 32.559 M 688.500 32 C 688.840 32.550, 689.568 33, 690.118 33 C 690.668 33, 690.840 32.550, 690.500 32 C 690.160 31.450, 689.432 31, 688.882 31 C 688.332 31, 688.160 31.450, 688.500 32 M 693 32 C 693.825 32.533, 694.050 33.005, 693.500 33.048 C 692.950 33.091, 693.589 33.562, 694.920 34.094 C 696.522 34.734, 697.687 34.713, 698.370 34.030 C 699.077 33.323, 698.729 33, 697.259 33 C 696.081 33, 694.840 32.550, 694.500 32 C 694.160 31.450, 693.346 31.007, 692.691 31.015 C 691.975 31.025, 692.099 31.418, 693 32 M 681.750 34.805 C 680.788 34.993, 680 35.601, 680 36.157 C 680 36.712, 680.563 36.965, 681.250 36.718 C 681.938 36.472, 683.326 36.696, 684.336 37.216 C 686.817 38.495, 687.340 37.734, 685.220 35.928 C 684.274 35.123, 682.712 34.617, 681.750 34.805 M 676 37.941 C 676 39.073, 676.450 40, 677 40 C 677.550 40, 678 39.352, 678 38.559 C 678 37.766, 677.550 36.840, 677 36.500 C 676.450 36.160, 676 36.809, 676 37.941 M 697 37 C 697 37.550, 697.450 38, 698 38 C 698.550 38, 699 37.550, 699 37 C 699 36.450, 698.550 36, 698 36 C 697.450 36, 697 36.450, 697 37 M 673.079 38.583 C 673.127 39.748, 673.364 39.985, 673.683 39.188 C 673.972 38.466, 673.936 37.603, 673.604 37.271 C 673.272 36.939, 673.036 37.529, 673.079 38.583 M 699.993 43.018 C 698.994 45.429, 698.977 46.375, 699.915 47.306 C 700.850 48.234, 700.972 48.116, 700.462 46.776 C 699.750 44.904, 702.263 41.632, 703.518 42.798 C 703.934 43.184, 704.072 42.853, 703.824 42.063 C 703.008 39.450, 701.293 39.878, 699.993 43.018 M 706 43 C 706 43.550, 707.013 43.993, 708.250 43.985 C 710.069 43.972, 710.213 43.784, 709 43 C 707.061 41.747, 706 41.747, 706 43 M 724 49.031 C 724 49.564, 724.675 50, 725.500 50 C 726.325 50, 727 49.823, 727 49.607 C 727 49.391, 726.325 48.955, 725.500 48.638 C 724.675 48.322, 724 48.499, 724 49.031 M 736.447 49.915 C 736.758 50.418, 736.447 51.085, 735.756 51.397 C 735.065 51.709, 735.363 51.860, 736.417 51.732 C 738.793 51.444, 739.783 49, 737.524 49 C 736.621 49, 736.136 49.412, 736.447 49.915 M 753.553 49.915 C 753.231 50.436, 753.394 51.125, 753.915 51.447 C 754.436 51.769, 755.125 51.606, 755.447 51.085 C 755.769 50.564, 755.606 49.875, 755.085 49.553 C 754.564 49.231, 753.875 49.394, 753.553 49.915 M 750 51 C 750 51.550, 750.450 52, 751 52 C 751.550 52, 752 51.550, 752 51 C 752 50.450, 751.550 50, 751 50 C 750.450 50, 750 50.450, 750 51 M 727.341 53.258 C 727.429 54.753, 728.063 56.193, 728.750 56.457 C 730.337 57.067, 730.285 56.143, 728.556 53.019 L 727.183 50.539 727.341 53.258 M 746.221 53.606 C 746.054 55.614, 746.367 56.073, 747.584 55.606 C 748.453 55.273, 749.662 55, 750.270 55 C 750.879 55, 750.411 54.100, 749.230 53 C 746.515 50.471, 746.479 50.478, 746.221 53.606 M 789.500 53 C 789.840 53.550, 790.316 54, 790.559 54 C 790.802 54, 791 53.550, 791 53 C 791 52.450, 790.523 52, 789.941 52 C 789.359 52, 789.160 52.450, 789.500 53 M 770 54 C 770 54.550, 770.450 55, 771 55 C 771.550 55, 772 54.550, 772 54 C 772 53.450, 771.550 53, 771 53 C 770.450 53, 770 53.450, 770 54 M 762 61.441 C 762 62.234, 762.408 63.134, 762.907 63.442 C 763.405 63.751, 763.578 63.102, 763.290 62.001 C 762.679 59.666, 762 59.371, 762 61.441 M 799.500 65 C 799.840 65.550, 800.316 66, 800.559 66 C 800.802 66, 801 65.550, 801 65 C 801 64.450, 800.523 64, 799.941 64 C 799.359 64, 799.160 64.450, 799.500 65 M 811.232 66 C 812.595 68.183, 817.455 68.844, 816.740 66.750 C 816.506 66.063, 815.343 65.641, 814.157 65.813 C 812.971 65.985, 812 65.647, 812 65.063 C 812 64.478, 811.546 64, 810.992 64 C 810.394 64, 810.492 64.814, 811.232 66 M 807.600 67.600 C 807.244 68.527, 807.178 69.511, 807.453 69.786 C 807.728 70.061, 808.244 69.527, 808.600 68.600 C 808.956 67.673, 809.022 66.689, 808.747 66.414 C 808.472 66.139, 807.956 66.673, 807.600 67.600 M 792.500 69 C 792.101 69.646, 792.224 70.624, 792.774 71.174 C 793.441 71.841, 794.016 71.783, 794.500 71 C 794.899 70.354, 794.776 69.376, 794.226 68.826 C 793.559 68.159, 792.984 68.217, 792.500 69 M 825 74.500 C 824.306 75.337, 824.197 76, 824.755 76 C 825.305 76, 826.315 75.325, 827 74.500 C 827.694 73.663, 827.803 73, 827.245 73 C 826.695 73, 825.685 73.675, 825 74.500 M 791.658 77.551 C 792.265 79.133, 794 79.545, 794 78.107 C 794 77.616, 793.348 76.964, 792.551 76.658 C 791.582 76.286, 791.286 76.582, 791.658 77.551 M 827.510 77.016 C 827.856 77.575, 828.557 77.774, 829.069 77.457 C 830.456 76.600, 830.198 76, 828.441 76 C 827.584 76, 827.165 76.457, 827.510 77.016 M 819.345 78.543 C 818.535 80.653, 819.887 81.793, 821.039 79.971 C 822.263 78.035, 822.239 77, 820.969 77 C 820.401 77, 819.671 77.694, 819.345 78.543 M 833.500 78 C 833.160 78.550, 833.610 79, 834.500 79 C 835.390 79, 835.840 78.550, 835.500 78 C 835.160 77.450, 834.710 77, 834.500 77 C 834.290 77, 833.840 77.450, 833.500 78 M 852 78.226 C 852 79.084, 852.739 80.069, 853.641 80.416 C 855.070 80.964, 855.107 80.816, 853.924 79.273 C 853.177 78.298, 852.439 77.313, 852.283 77.083 C 852.127 76.854, 852 77.369, 852 78.226 M 826 81 C 826 81.550, 826.450 82, 827 82 C 827.550 82, 828 81.550, 828 81 C 828 80.450, 827.550 80, 827 80 C 826.450 80, 826 80.450, 826 81 M 816 84 C 816 84.550, 816.450 85, 817 85 C 817.550 85, 818 84.550, 818 84 C 818 83.450, 817.550 83, 817 83 C 816.450 83, 816 83.450, 816 84 M 820.597 83.844 C 820.251 84.404, 820.455 85.163, 821.050 85.531 C 822.588 86.481, 823.580 85.180, 822.296 83.896 C 821.578 83.178, 821.019 83.161, 820.597 83.844 M 824.813 84.683 C 825.534 84.972, 826.397 84.936, 826.729 84.604 C 827.061 84.272, 826.471 84.036, 825.417 84.079 C 824.252 84.127, 824.015 84.364, 824.813 84.683 M 833 85.559 C 833 86.416, 833.450 86.840, 834 86.500 C 834.550 86.160, 835 85.459, 835 84.941 C 835 84.423, 834.550 84, 834 84 C 833.450 84, 833 84.702, 833 85.559 M 836.232 86 C 835.492 87.186, 835.394 88, 835.992 88 C 836.546 88, 837 87.550, 837 87 C 837 86.450, 837.480 86, 838.067 86 C 838.709 86, 838.864 86.897, 838.455 88.250 C 837.929 89.991, 838.049 90.240, 838.987 89.351 C 840.184 88.215, 839.543 84, 838.173 84 C 837.793 84, 836.919 84.900, 836.232 86 M 848.948 85.563 C 847.808 86.937, 847.992 87.040, 850.475 86.417 C 852.482 85.913, 853.094 86.040, 852.590 86.854 C 851.788 88.153, 852.156 88.261, 854.418 87.393 C 855.288 87.059, 856 86.398, 856 85.924 C 856 85.451, 855.371 85.304, 854.601 85.600 C 853.832 85.895, 852.905 85.656, 852.542 85.068 C 851.620 83.577, 850.464 83.736, 848.948 85.563 M 866.079 86.583 C 866.127 87.748, 866.364 87.985, 866.683 87.188 C 866.972 86.466, 866.936 85.603, 866.604 85.271 C 866.272 84.939, 866.036 85.529, 866.079 86.583 M 824 88 C 824 88.550, 824.477 89, 825.059 89 C 825.641 89, 825.840 88.550, 825.500 88 C 825.160 87.450, 824.684 87, 824.441 87 C 824.198 87, 824 87.450, 824 88 M 841.500 89 C 841.160 89.550, 841.557 90, 842.382 90 C 843.207 90, 844.160 89.550, 844.500 89 C 844.840 88.450, 844.443 88, 843.618 88 C 842.793 88, 841.840 88.450, 841.500 89 M 894 90.378 C 894 90.585, 894.685 91.324, 895.523 92.019 C 896.796 93.076, 896.943 93.014, 896.416 91.641 C 895.878 90.240, 894 89.257, 894 90.378 M 860 92 C 860 92.550, 860.450 93, 861 93 C 861.550 93, 862 92.550, 862 92 C 862 91.450, 861.550 91, 861 91 C 860.450 91, 860 91.450, 860 92 M 891.731 93.080 C 892.085 94.432, 892.538 94.886, 892.788 94.137 C 893.028 93.415, 892.750 92.350, 892.168 91.768 C 891.426 91.026, 891.296 91.417, 891.731 93.080 M 864 94.906 C 864 95.405, 864.900 95.577, 866 95.290 C 867.100 95.002, 868 94.594, 868 94.383 C 868 94.173, 867.100 94, 866 94 C 864.900 94, 864 94.408, 864 94.906 M 843.345 96.543 C 843.019 97.392, 843.034 98.367, 843.376 98.710 C 843.719 99.053, 844 98.621, 844 97.750 C 844 96.879, 844.563 95.940, 845.250 95.662 C 846.229 95.267, 846.222 95.141, 845.219 95.079 C 844.514 95.036, 843.671 95.694, 843.345 96.543 M 849.813 95.683 C 850.534 95.972, 851.397 95.936, 851.729 95.604 C 852.061 95.272, 851.471 95.036, 850.417 95.079 C 849.252 95.127, 849.015 95.364, 849.813 95.683 M 876.032 96.559 C 876.049 97.076, 876.724 98.374, 877.532 99.441 C 878.339 100.509, 878.986 100.959, 878.968 100.441 C 878.951 99.924, 878.276 98.626, 877.468 97.559 C 876.661 96.491, 876.014 96.041, 876.032 96.559 M 914.813 97.683 C 915.534 97.972, 916.397 97.936, 916.729 97.604 C 917.061 97.272, 916.471 97.036, 915.417 97.079 C 914.252 97.127, 914.015 97.364, 914.813 97.683 M 848.624 100.539 C 847.659 103.053, 847.943 103.702, 849.122 101.675 C 849.706 100.671, 849.973 99.639, 849.715 99.382 C 849.458 99.124, 848.966 99.645, 848.624 100.539 M 865 100 C 865 100.550, 865.450 101, 866 101 C 866.550 101, 867 100.550, 867 100 C 867 99.450, 866.550 99, 866 99 C 865.450 99, 865 99.450, 865 100 M 869 100 C 869 100.550, 869.450 101, 870 101 C 870.550 101, 871 100.550, 871 100 C 871 99.450, 870.550 99, 870 99 C 869.450 99, 869 99.450, 869 100 M 880 99.893 C 880 100.384, 880.739 101.069, 881.641 101.416 C 883.014 101.943, 883.076 101.796, 882.019 100.523 C 880.579 98.788, 880 98.607, 880 99.893 M 884 100.059 C 884 100.641, 884.450 100.840, 885 100.500 C 885.550 100.160, 886 99.684, 886 99.441 C 886 99.198, 885.550 99, 885 99 C 884.450 99, 884 99.477, 884 100.059 M 901.500 100 C 901.840 100.550, 902.316 101, 902.559 101 C 902.802 101, 903 100.550, 903 100 C 903 99.450, 902.523 99, 901.941 99 C 901.359 99, 901.160 99.450, 901.500 100 M 904.607 100.582 C 903.668 103.029, 903.872 103.271, 905.500 101.643 C 907.200 99.943, 907.417 99, 906.107 99 C 905.616 99, 904.941 99.712, 904.607 100.582 M 858.500 102 C 858.840 102.550, 859.316 103, 859.559 103 C 859.802 103, 860 102.550, 860 102 C 860 101.450, 859.523 101, 858.941 101 C 858.359 101, 858.160 101.450, 858.500 102 M 931.500 102 C 931.840 102.550, 932.316 103, 932.559 103 C 932.802 103, 933 102.550, 933 102 C 933 101.450, 932.523 101, 931.941 101 C 931.359 101, 931.160 101.450, 931.500 102 M 880.459 104.067 C 880.096 104.653, 880.014 105.348, 880.276 105.610 C 880.538 105.872, 881.019 105.392, 881.345 104.543 C 882.021 102.781, 881.445 102.471, 880.459 104.067 M 926 106 C 926 106.550, 926.450 107, 927 107 C 927.550 107, 928 106.550, 928 106 C 928 105.450, 927.550 105, 927 105 C 926.450 105, 926 105.450, 926 106 M 898 107.500 C 897.293 108.352, 896.940 109.273, 897.215 109.548 C 897.490 109.823, 898.293 109.352, 899 108.500 C 899.707 107.648, 900.060 106.727, 899.785 106.452 C 899.510 106.177, 898.707 106.648, 898 107.500 M 952.500 107 C 952.160 107.550, 952.359 108, 952.941 108 C 953.523 108, 954 107.550, 954 107 C 954 106.450, 953.802 106, 953.559 106 C 953.316 106, 952.840 106.450, 952.500 107 M 928.328 110.073 C 928.531 111.408, 929.440 112.645, 930.349 112.823 C 932.487 113.242, 932.430 112.802, 929.979 109.976 L 927.959 107.646 928.328 110.073 M 891 110 C 891 110.550, 891.477 111, 892.059 111 C 892.641 111, 892.840 110.550, 892.500 110 C 892.160 109.450, 891.684 109, 891.441 109 C 891.198 109, 891 109.450, 891 110 M 902.211 110.601 C 901.501 111.370, 901.362 112, 901.902 112 C 902.940 112, 904.443 110.098, 903.850 109.534 C 903.658 109.351, 902.920 109.831, 902.211 110.601 M 917.654 110.249 C 918.078 110.936, 918.442 112.398, 918.463 113.499 C 918.488 114.866, 919.292 115.604, 921 115.829 C 923.441 116.150, 923.453 116.121, 921.500 114.610 C 919.552 113.104, 919.572 113.063, 922.250 113.032 C 924.184 113.009, 925 113.504, 925 114.700 C 925 116.100, 925.221 116.166, 926.250 115.075 C 927.250 114.015, 927.249 113.658, 926.244 113.290 C 925.553 113.036, 925.272 112.369, 925.619 111.807 C 926.017 111.163, 925.464 111.035, 924.122 111.461 C 922.765 111.892, 921.425 111.568, 920.426 110.568 C 918.558 108.701, 916.554 108.470, 917.654 110.249 M 935 111.500 C 931.734 113.367, 932.877 113.388, 937.135 111.539 C 938.986 110.736, 939.825 110.077, 939 110.075 C 938.175 110.073, 936.375 110.714, 935 111.500 M 951.446 116.087 C 951.077 116.685, 951.341 117.698, 952.034 118.337 C 953.018 119.245, 953.164 119.129, 952.702 117.812 C 952.284 116.619, 952.754 116, 954.305 115.698 L 956.500 115.272 954.309 115.136 C 953.104 115.061, 951.816 115.489, 951.446 116.087 M 933 117 C 933 117.550, 933.450 118, 934 118 C 934.550 118, 935 117.550, 935 117 C 935 116.450, 934.550 116, 934 116 C 933.450 116, 933 116.450, 933 117 M 952.690 120.452 C 950.957 122.186, 949.550 122.537, 950.500 121 C 951.263 119.766, 949.982 119.725, 948.088 120.925 C 946.897 121.678, 946.942 122.084, 948.374 123.517 C 949.971 125.114, 950.221 125.053, 952.591 122.496 C 955.251 119.626, 955.340 117.803, 952.690 120.452 M 966.500 123 C 966.840 123.550, 967.316 124, 967.559 124 C 967.802 124, 968 123.550, 968 123 C 968 122.450, 967.523 122, 966.941 122 C 966.359 122, 966.160 122.450, 966.500 123 M 974.500 127 C 974.840 127.550, 975.316 128, 975.559 128 C 975.802 128, 976 127.550, 976 127 C 976 126.450, 975.523 126, 974.941 126 C 974.359 126, 974.160 126.450, 974.500 127 M 955 131.059 C 955 131.641, 955.450 131.840, 956 131.500 C 956.550 131.160, 957 130.684, 957 130.441 C 957 130.198, 956.550 130, 956 130 C 955.450 130, 955 130.477, 955 131.059 M 964 131.559 C 964 132.416, 964.450 132.840, 965 132.500 C 965.550 132.160, 966 131.459, 966 130.941 C 966 130.423, 965.550 130, 965 130 C 964.450 130, 964 130.702, 964 131.559 M 981.079 132.583 C 981.127 133.748, 981.364 133.985, 981.683 133.188 C 981.972 132.466, 981.936 131.603, 981.604 131.271 C 981.272 130.939, 981.036 131.529, 981.079 132.583 M 988 135.059 C 988 135.641, 988.450 135.840, 989 135.500 C 989.550 135.160, 990 134.684, 990 134.441 C 990 134.198, 989.550 134, 989 134 C 988.450 134, 988 134.477, 988 135.059 M 969.500 136 C 969.840 136.550, 970.568 137, 971.118 137 C 971.668 137, 971.840 136.550, 971.500 136 C 971.160 135.450, 970.432 135, 969.882 135 C 969.332 135, 969.160 135.450, 969.500 136 M 991.500 137 C 991.840 137.550, 992.316 138, 992.559 138 C 992.802 138, 993 137.550, 993 137 C 993 136.450, 992.523 136, 991.941 136 C 991.359 136, 991.160 136.450, 991.500 137 M 996 137 C 995.175 137.533, 994.950 137.969, 995.500 137.969 C 996.050 137.969, 997.175 137.533, 998 137 C 998.825 136.467, 999.050 136.031, 998.500 136.031 C 997.950 136.031, 996.825 136.467, 996 137 M 989.459 149.067 C 988.383 150.808, 989.608 151.177, 990.980 149.524 C 991.769 148.574, 991.845 148, 991.181 148 C 990.597 148, 989.821 148.480, 989.459 149.067 M 993 153.059 C 993 153.641, 993.450 153.840, 994 153.500 C 994.550 153.160, 995 152.684, 995 152.441 C 995 152.198, 994.550 152, 994 152 C 993.450 152, 993 152.477, 993 153.059 M 996.500 156 C 996.840 156.550, 997.316 157, 997.559 157 C 997.802 157, 998 156.550, 998 156 C 998 155.450, 997.523 155, 996.941 155 C 996.359 155, 996.160 155.450, 996.500 156 M 279.344 335.816 C 278.417 337.284, 277.836 337.339, 274.819 336.250 C 270.135 334.558, 269.241 334.664, 268.500 337 C 268.151 338.100, 267.065 339, 266.086 339 C 265.108 339, 262.855 339.724, 261.080 340.610 C 259.305 341.495, 255.749 342.807, 253.177 343.524 C 250.604 344.241, 246.025 345.730, 243 346.833 C 239.975 347.935, 233.310 349.304, 228.189 349.875 C 222.021 350.562, 217.761 351.603, 215.571 352.956 C 213.752 354.080, 211.740 355, 211.100 355 C 210.460 355, 208.263 355.744, 206.218 356.654 C 204.173 357.563, 201.989 358.230, 201.364 358.136 C 200.739 358.042, 199.982 358.605, 199.681 359.388 C 199.381 360.171, 197.642 361.098, 195.818 361.449 C 192.370 362.111, 180.885 366.992, 179.985 368.178 C 179.702 368.551, 175.877 370.051, 171.485 371.511 C 167.093 372.972, 160.727 375.704, 157.338 377.583 C 153.948 379.463, 150.080 381, 148.743 381 C 147.405 381, 145.495 381.900, 144.500 383 C 143.505 384.100, 141.886 385, 140.904 385 C 139.922 385, 138.868 385.405, 138.562 385.900 C 138.256 386.394, 135.753 387.339, 133 388 C 130.247 388.661, 127.770 389.564, 127.496 390.007 C 127.222 390.450, 124.636 391.130, 121.749 391.518 C 118.862 391.906, 116.050 392.563, 115.500 392.976 C 114.950 393.390, 111.800 394.033, 108.500 394.405 C 89.287 396.570, 86.743 396.704, 75.500 396.149 C 72.750 396.013, 65.775 396.399, 60 397.007 C 54.225 397.614, 46.800 397.896, 43.500 397.632 C 40.200 397.368, 30.075 396.687, 21 396.117 C 11.925 395.548, 3.488 394.830, 2.250 394.522 L 0 393.962 0 530.482 L 0 667.002 500.250 666.751 L 1000.500 666.500 1000.500 520.333 C 1000.500 439.941, 1000.234 373.900, 999.908 373.575 C 999.583 373.249, 995.331 374.824, 990.460 377.075 C 978.669 382.522, 970.052 385.712, 962.227 387.527 C 958.676 388.351, 951.885 390.398, 947.135 392.076 C 929.407 398.341, 923.657 399.214, 897.500 399.615 C 884.300 399.817, 871.475 400.026, 869 400.079 C 856.235 400.352, 837.862 399.841, 833 399.077 C 824.030 397.668, 806.908 394.171, 801 392.541 C 792.973 390.327, 785.598 390.607, 777.500 393.434 C 756.495 400.768, 736.987 404.654, 728.788 403.138 C 725.798 402.585, 719.335 401.833, 714.426 401.467 C 709.517 401.101, 701.229 399.666, 696.010 398.279 C 688.676 396.329, 685.127 395.886, 680.389 396.328 C 674.780 396.852, 673.929 396.660, 670.379 394.075 C 667.450 391.942, 664.850 391.078, 659.759 390.546 C 653.371 389.880, 652.722 390.012, 647.353 393.084 C 640.371 397.079, 634.974 398.160, 628.676 396.825 C 624.387 395.916, 623.195 396.088, 617.926 398.373 C 614.667 399.786, 612 400.699, 612 400.400 C 612 400.101, 611.247 400.610, 610.326 401.531 C 609.086 402.771, 607.724 403.038, 605.076 402.562 C 603.109 402.208, 598.575 401.746, 595 401.535 C 591.425 401.324, 587.233 400.668, 585.685 400.076 C 584.137 399.484, 581.351 399, 579.494 399 C 577.637 399, 575.840 398.550, 575.500 398 C 575.160 397.450, 573.424 397, 571.641 397 C 569.858 397, 567.841 396.441, 567.158 395.758 C 566.170 394.770, 565.738 394.805, 565.041 395.934 C 563.602 398.263, 560.230 398.166, 550.249 395.509 C 541.010 393.050, 536.345 391.338, 530.752 388.355 C 528.444 387.124, 526.728 387.076, 520.019 388.058 C 510.382 389.467, 508.093 388.982, 503.104 384.475 C 500.988 382.564, 498.859 381, 498.371 381 C 497.883 381, 495.415 379.899, 492.887 378.553 L 488.290 376.106 484.916 379.586 C 478.349 386.362, 466.504 391.243, 464.500 388 C 464.160 387.450, 462.610 387, 461.055 387 C 458.063 387, 444.555 382.776, 439.500 380.259 C 436.139 378.586, 432 375.061, 432 373.871 C 432 373.442, 430.988 372.032, 429.750 370.737 C 428.512 369.442, 427.002 367.511, 426.394 366.445 C 425.375 364.662, 424.915 364.608, 420.607 365.760 C 418.033 366.449, 414.249 366.744, 412.199 366.416 C 409.583 365.997, 404.003 366.957, 393.486 369.635 C 374.963 374.351, 362.815 374.762, 349 371.141 C 339.043 368.531, 332 366.007, 332 365.048 C 332 363.921, 324.377 360, 322.185 360 C 321.062 360, 318.423 358.371, 316.321 356.380 C 310.351 350.723, 302.148 344.645, 293.927 339.784 C 284.971 334.490, 280.883 333.377, 279.344 335.816 M 0.486 530.500 C 0.486 605.850, 0.605 636.527, 0.750 598.672 C 0.895 560.817, 0.895 499.167, 0.750 461.672 C 0.605 424.177, 0.486 455.150, 0.486 530.500 " stroke="none" fill="black" fill-rule="evenodd"/>
</svg>